<svg width="442" height="360" viewBox="0 0 442 360" fill="none" xmlns="http://www.w3.org/2000/svg"><g clip-path="url(#clip0_793_2718)"><path fill-rule="evenodd" clip-rule="evenodd" d="M275.745 268.819C281.32 265.166 288.796 266.746 292.443 272.349C298.561 281.751 314.722 301.899 333.277 315.285C338.69 319.191 339.932 326.759 336.05 332.19C332.168 337.621 324.632 338.857 319.218 334.952C297.586 319.346 279.493 296.706 272.253 285.581C268.606 279.978 270.17 272.473 275.745 268.819Z" fill="#33E3FF"/><path d="M396.75 302.32C394.036 299.571 393.142 295.324 394.825 291.592C397.002 286.766 401.871 283.974 405.984 284.502C410.098 285.031 413.574 286.02 419.389 290.159C425.204 294.297 427.372 304.18 419.166 311.375C410.96 318.57 407.303 318.913 407.303 318.913C402.408 320.228 397.712 318.707 395.141 313.886C393.062 309.989 393.842 305.325 396.75 302.32Z" fill="#33E3FF"/><path d="M306.024 236.388C314.673 227.039 326.507 219.13 336.005 213.674C338.912 212.004 342.141 210.998 345.478 210.694C358.395 209.518 378.321 208.939 400.054 216.823C406.645 219.214 410.823 225.521 411.346 232.535C413.664 263.588 419.598 348.371 415.877 355.624C411.314 364.518 377.212 386.88 367.224 386.006C361.188 385.478 335.166 375.102 322.132 368.985C318.804 367.423 316.411 364.444 315.548 360.859C309.135 334.239 303.026 282.777 302.267 246.851C302.186 242.995 303.412 239.212 306.024 236.388Z" fill="#FFC7B8"/><path fill-rule="evenodd" clip-rule="evenodd" d="M413.495 259.014L383.482 270.812C379.312 272.451 374.72 269.684 374.195 265.215L372.677 252.296C372.126 247.612 368.311 243.994 363.623 243.711C363.009 243.674 362.376 243.636 361.724 243.596C345.307 242.604 317.404 240.917 310.236 241.126C305.557 241.263 303.407 246.388 302.431 251.778C302.368 250.093 302.317 248.447 302.278 246.844C302.185 242.989 303.413 239.212 306.025 236.389C314.674 227.04 326.507 219.13 336.006 213.674C338.913 212.004 342.141 210.998 345.478 210.694C358.41 209.517 378.368 208.939 400.13 216.851C406.678 219.231 410.843 225.441 411.41 232.408C411.957 239.129 412.697 248.424 413.495 259.014Z" fill="url(#paint0_linear_793_2718)"/><path d="M403.997 264.017C404.554 268.877 401.14 273.621 396.371 274.613C391.603 275.605 387.285 272.469 386.728 267.609C386.171 262.749 389.584 258.005 394.353 257.014C399.122 256.022 403.439 259.157 403.997 264.017Z" fill="#FFC7B8"/><path fill-rule="evenodd" clip-rule="evenodd" d="M353.711 228.885C359.749 233.012 367.969 231.448 372.071 225.391C376.173 219.334 374.604 211.078 368.566 206.951C365.597 204.921 362.101 204.268 358.826 204.848C357.33 201.177 354.779 197.891 351.269 195.491C341.762 188.993 328.82 191.455 322.361 200.992C315.902 210.529 318.372 223.529 327.879 230.027C335.867 235.488 346.282 234.621 353.237 228.546C353.392 228.662 353.55 228.775 353.711 228.885Z" fill="#FF9500"/><path d="M355.742 264.747C355.66 273.38 349.626 280.747 341.999 280.649C334.371 280.55 327.317 275.802 327.101 265.673C326.885 255.543 332.524 249.468 340.851 249.317C349.178 249.166 355.824 256.114 355.742 264.747Z" fill="white"/><path d="M331.838 263.091C332.19 272.179 325.958 278.574 319.922 278.54C313.885 278.506 308.553 275.169 306.903 265.918C305.252 256.666 310.441 248.918 317.872 248.452C325.302 247.986 331.485 254.003 331.838 263.091Z" fill="white"/><path fill-rule="evenodd" clip-rule="evenodd" d="M415.366 290.489C418.012 325.814 420.079 341.21 422.151 353.015C417.588 361.91 377.213 386.88 367.224 386.006C361.189 385.478 335.167 375.102 322.133 368.985C318.804 367.423 316.412 364.444 315.549 360.859C312.404 347.804 308.785 323.966 306.381 303.725C323.634 307.437 357.83 312.43 367.187 311.32C378.868 309.934 400.666 298.889 415.366 290.489Z" fill="#33E3FF"/><path fill-rule="evenodd" clip-rule="evenodd" d="M419.356 334.802C421.745 347.39 423.486 359.045 422.349 361.26C417.786 370.155 378.028 391.805 368.039 390.931C362.004 390.403 335.982 380.028 322.947 373.91C319.619 372.348 317.227 369.37 316.363 365.785C315.15 360.748 314.443 357.61 313.286 351.068C331.817 357.307 361.425 359.68 370.055 358.999C382.304 358.033 399.237 347.484 412.899 338.974C414.58 337.927 417.789 335.766 419.356 334.802Z" fill="#0084C2"/><path d="M343.648 297.705C340.045 298.461 336.957 295.72 335.812 291.705C334.667 287.69 336.141 284.673 339.452 283.66C342.763 282.647 346.63 284.926 347.775 288.94C348.921 292.955 347.251 296.95 343.648 297.705Z" fill="#D04040"/><path d="M294.123 287.001C289.331 294.076 279.73 295.903 272.678 291.082C265.625 286.261 263.793 276.617 268.584 269.542C273.376 262.468 282.977 260.641 290.029 265.462C297.081 270.283 298.914 279.926 294.123 287.001Z" fill="#FFC7B8"/><path fill-rule="evenodd" clip-rule="evenodd" d="M380.799 312.301C381.472 312.812 381.604 313.772 381.093 314.446C378.792 317.479 374.623 318.933 371.158 319.091C367.74 319.246 364.386 318.792 360.626 316.487C359.905 316.045 359.679 315.103 360.121 314.382C360.563 313.661 361.506 313.435 362.227 313.876C365.343 315.787 368.052 316.167 371.019 316.032C373.94 315.899 377.09 314.657 378.654 312.595C379.165 311.921 380.125 311.79 380.799 312.301ZM398.943 326.19C399.663 326.633 399.888 327.575 399.445 328.296C398.322 330.123 395.441 333.307 391.146 336.194C386.821 339.101 380.972 341.771 373.882 342.44C361.652 343.593 352.648 338.975 348.036 335.862C347.335 335.389 347.15 334.437 347.624 333.736C348.097 333.035 349.048 332.851 349.749 333.324C354.011 336.2 362.31 340.456 373.595 339.391C380.076 338.78 385.444 336.337 389.437 333.653C393.459 330.949 395.994 328.063 396.837 326.692C397.279 325.972 398.222 325.747 398.943 326.19Z" fill="#00CBEB"/><path d="M356.91 327.397C352.118 334.472 342.517 336.299 335.465 331.478C328.412 326.657 326.58 317.014 331.371 309.939C336.163 302.864 345.764 301.037 352.816 305.858C359.868 310.679 361.701 320.322 356.91 327.397Z" fill="#FFC7B8"/><path fill-rule="evenodd" clip-rule="evenodd" d="M354.286 307.786C348.517 302.09 339.249 302.163 333.584 307.948C332.962 308.583 331.944 308.591 331.31 307.965C330.676 307.34 330.667 306.317 331.289 305.681C338.198 298.625 349.503 298.537 356.54 305.484C357.586 306.517 358.48 307.649 359.22 308.851C359.688 309.61 359.455 310.605 358.7 311.074C357.945 311.542 356.953 311.307 356.486 310.548C355.88 309.564 355.147 308.636 354.286 307.786Z" fill="#FEB39F"/><path fill-rule="evenodd" clip-rule="evenodd" d="M324.458 311.374C325.79 311.431 326.826 312.561 326.772 313.898L324.36 313.793C326.772 313.898 326.772 313.898 326.772 313.899L326.771 313.903L326.771 313.91L326.77 313.932C326.769 313.95 326.768 313.974 326.766 314.004C326.763 314.063 326.758 314.146 326.751 314.252C326.736 314.465 326.712 314.769 326.674 315.158C326.597 315.937 326.463 317.057 326.229 318.464C325.762 321.276 324.899 325.239 323.312 329.914C322.883 331.179 321.512 331.853 320.25 331.419C318.989 330.984 318.314 329.607 318.744 328.342C320.235 323.948 321.039 320.244 321.468 317.656C321.683 316.363 321.804 315.349 321.871 314.67C321.905 314.33 321.925 314.074 321.936 313.908C321.942 313.825 321.945 313.765 321.947 313.728C321.948 313.71 321.949 313.697 321.949 313.691L321.949 313.686L321.949 313.687M321.949 313.688C321.949 313.687 321.949 313.686 321.95 313.686C322.005 312.351 323.128 311.316 324.458 311.374" fill="white"/><path fill-rule="evenodd" clip-rule="evenodd" d="M310.036 327.141C308.826 326.135 307.631 325.113 306.453 324.078C305.977 319.674 305.539 314.848 305.34 311.254C305.291 310.364 305.97 309.602 306.857 309.554C307.744 309.506 308.503 310.189 308.552 311.08C308.802 315.604 309.437 322.088 310.036 327.141Z" fill="#00CBEB"/><path fill-rule="evenodd" clip-rule="evenodd" d="M348.714 267.83C348.8 273.594 344.578 278.157 339.596 278.286C334.613 278.415 330.094 274.771 329.488 268.396C329.354 266.987 329.432 265.651 329.695 264.426C329.799 264.525 329.909 264.62 330.025 264.709C331.763 266.061 334.094 266.215 336.011 263.728C337.771 261.443 337.46 258.928 335.775 257.518C336.552 257.301 337.384 257.188 338.263 257.194C343.924 257.232 348.629 262.067 348.714 267.83ZM343.74 269.078C342.791 267.673 340.888 267.305 339.49 268.256L337.132 269.861C335.734 270.812 335.371 272.722 336.32 274.127C337.269 275.532 339.172 275.9 340.569 274.949L342.928 273.344C344.325 272.393 344.689 270.483 343.74 269.078Z" fill="#3D3D3D"/><path fill-rule="evenodd" clip-rule="evenodd" d="M327.991 266.324C328.227 272.316 324.202 276.932 319.671 276.73C315.139 276.527 310.552 273.902 309.63 267.993C309.334 266.092 309.549 264.267 310.147 262.656C310.416 263.083 310.769 263.463 311.194 263.774C312.941 265.054 315.32 265.391 317.171 263.001C318.945 260.71 318.485 258.134 316.602 256.769C317.013 256.677 317.434 256.616 317.862 256.59C323.001 256.271 327.754 260.332 327.991 266.324ZM324.077 267.623C323.128 266.219 321.225 265.851 319.827 266.802L317.469 268.407C316.071 269.358 315.708 271.268 316.657 272.673C317.606 274.078 319.509 274.445 320.906 273.494L323.265 271.889C324.662 270.938 325.026 269.028 324.077 267.623Z" fill="#3D3D3D"/><path d="M329.984 279.648C328.897 282.239 326.562 283.07 324.482 282.187C322.403 281.305 321.366 279.043 322.453 276.452C323.541 273.861 328.611 271.609 328.869 271.736C329.203 271.903 331.072 277.057 329.984 279.648Z" fill="#EE9583"/><path d="M169.175 333.511C172.957 340.608 170.268 349.427 163.171 353.208C156.073 356.989 147.254 354.301 143.473 347.204C139.692 340.106 142.381 331.287 149.478 327.506C156.575 323.725 165.394 326.413 169.175 333.511Z" fill="#FFCBA3"/><path d="M165.396 359.907C146.826 411.663 102.466 392.579 63.6597 375.728C24.8533 358.876 6.151 341.483 16.4367 314.082C26.7225 286.681 75.3138 255.371 113.884 273.303C156.111 266.541 183.966 308.152 165.396 359.907Z" fill="#FFB100"/><path d="M165.396 359.907C146.826 411.663 102.466 392.579 63.6597 375.728C24.8533 358.876 6.151 341.483 16.4367 314.082C26.7225 286.681 75.3138 255.371 113.884 273.303C156.111 266.541 183.966 308.152 165.396 359.907Z" fill="#FFB100"/><path d="M98.7932 317.587C92.3758 317.084 88.3474 310.803 86.7047 307.491L91.1494 293.992L129.049 283.577L137.397 295.147C137.408 299.267 134.846 310.362 127.48 312.729C120.113 315.096 116.348 311.514 114.841 308.798C112.285 311.859 106.159 318.164 98.7932 317.587Z" fill="white"/><path d="M59.3234 355.638C82.5446 325.348 100.456 294.674 103.21 279.249L91.0909 276.311C76.4663 273.471 62.697 274.601 50.9007 278.596C34.3514 287.684 21.2307 301.308 16.4355 314.082C11.1111 328.266 13.5543 339.769 22.5329 349.902C25.2226 352.539 28.429 355.387 32.1941 358.577C37.1937 362.281 43.1436 365.834 49.9693 369.315C51.0271 368.12 51.7613 366.908 52.7618 365.256C54.0641 363.106 55.8176 360.211 59.3234 355.638Z" fill="#FF9500"/><path d="M116.545 335.622C114.171 341.099 108.737 344.877 104.169 343.292C99.6021 341.708 98.0217 335.985 100.385 330.12C102.749 324.256 108.671 321.393 113.086 323.059C117.501 324.726 118.918 330.144 116.545 335.622Z" fill="white"/><path d="M137.732 358.026C137.498 359.729 178.961 361.263 179.511 359.635C189.829 329.132 161.41 265.693 123.409 276.68C133.472 290.102 137.419 307.917 139.569 332.135C140.176 337.87 138.558 352.032 137.732 358.026Z" fill="#FF9500"/><path d="M51.4358 271.752C24.6146 261.63 21.4749 243.613 20.4817 231.341L72.171 213.89L158.484 215.806C164.326 242.852 144.96 253.183 132.513 259.823L132.406 259.881C120.362 266.306 76.8152 281.33 51.4358 271.752Z" fill="#9F9F9F"/><path d="M21.749 221.459C27.1199 200.647 56.1949 186.381 87.1176 180.361C118.04 174.341 149.598 181.567 157.771 207.376C165.944 233.186 137.965 241.598 111.591 249.827C84.0132 258.431 56.7775 262.369 39.7834 256.316C21.5168 249.81 18.4084 234.404 21.749 221.459Z" fill="#3D3D3D"/><path d="M72.3139 252.882C76.3429 247.876 76.375 239.227 73.7594 233.735C73.2172 232.596 73.584 231.166 74.7287 230.625C98.3945 219.445 130.192 214.82 144.472 214.287C145.706 214.241 146.883 214.762 147.621 215.746C159.361 231.402 158.128 264.228 154.472 273.898C150.405 284.653 139.782 301.066 106.644 301.485C77.0048 301.859 51.3528 278.689 46.4981 269.656C56.6054 272.516 62.9744 263.667 61.0993 259.311C61.0524 259.202 61.1562 259.069 61.2754 259.069C63.011 259.071 69.4838 256.399 72.3139 252.882Z" fill="#FFCBA3"/><path d="M146.161 245.087C141.308 246.121 132.549 249.809 129.27 251.499C126.415 243.267 128.199 234.997 136.631 233.707C144.276 232.536 146.833 239.225 147.312 243.628C147.389 244.334 146.86 244.938 146.161 245.087Z" fill="white"/><path d="M146.161 245.087C141.308 246.121 132.549 249.809 129.27 251.499C126.415 243.267 128.199 234.997 136.631 233.707C144.276 232.536 146.833 239.225 147.312 243.628C147.389 244.334 146.86 244.938 146.161 245.087Z" fill="white"/><path d="M101.059 254.537C111.488 252.389 120.603 252.116 125.092 252.448C125.332 245.301 121.104 236.047 111.452 237.508C101.799 238.969 99.0909 248.435 101.059 254.537Z" fill="white"/><path d="M82.738 170.528C87.5892 181.423 82.6338 194.164 71.6698 198.985C60.7058 203.806 47.8851 198.881 43.0339 187.986C38.1827 177.09 43.1381 164.35 54.1021 159.529C65.0661 154.708 77.8868 159.632 82.738 170.528Z" fill="#3D3D3D"/><path fill-rule="evenodd" clip-rule="evenodd" d="M30.2215 336.554C13.4427 338.006 13.4419 337.996 13.4411 337.987L13.4395 337.968L13.4363 337.93C13.4342 337.904 13.4322 337.878 13.4301 337.852C13.426 337.799 13.4221 337.745 13.4183 337.69C13.4108 337.58 13.4039 337.464 13.3978 337.344C13.3857 337.103 13.3769 336.841 13.3732 336.56C13.3656 335.997 13.3779 335.357 13.4221 334.643C13.5107 333.212 13.7264 331.499 14.1584 329.531C15.0266 325.575 16.7369 320.729 19.8871 315.161C22.6945 310.199 25.2212 306.662 27.3257 304.154C28.3794 302.898 29.3297 301.897 30.1585 301.104C30.5728 300.707 30.9565 300.362 31.3071 300.064C31.4824 299.915 31.6493 299.778 31.8075 299.651C31.8866 299.588 31.9635 299.527 32.0382 299.47C32.0755 299.441 32.1123 299.412 32.1485 299.385C32.1667 299.371 32.1846 299.357 32.2025 299.344L32.2291 299.324L32.2423 299.314C32.2489 299.309 32.2555 299.304 42.3605 312.777L32.2555 299.304C39.6965 293.723 50.2528 295.231 55.8336 302.672C59.6481 307.758 60.151 314.299 57.7113 319.712L79.3462 319.712C88.6475 319.712 96.1877 327.252 96.1877 336.554C96.1877 345.855 88.6475 353.395 79.3462 353.395L30.2215 353.395C21.4831 353.395 14.1962 346.712 13.4427 338.006L30.2215 336.554Z" fill="#FFB100"/><path fill-rule="evenodd" clip-rule="evenodd" d="M59.7718 323.915C51.488 324.079 43.1069 324.245 39.9394 324.245C38.6429 324.245 37.5918 323.194 37.5918 321.898C37.5918 320.601 38.6429 319.55 39.9394 319.55C43.0463 319.55 51.3593 319.386 59.6784 319.22L60.1031 319.212C68.2427 319.05 76.3028 318.89 79.2366 318.89C80.5332 318.89 81.5842 319.941 81.5842 321.237C81.5842 322.534 80.5332 323.585 79.2366 323.585C76.3503 323.585 68.3026 323.745 60.0926 323.908L59.7718 323.915Z" fill="#FF9500"/><path d="M141.458 246.449C138.637 247.41 135.551 248.646 133.044 249.74C132.743 249.019 132.51 248.152 132.35 247.12C131.667 242.717 133.596 240.55 136.101 240.116C138.606 239.682 140.761 241.568 141.364 245.667C141.403 245.933 141.434 246.194 141.458 246.449Z" fill="#3D3D3D"/><path d="M121.523 252.331C121.462 251.634 121.326 250.552 121.25 250.05C120.533 245.308 118.212 243.469 115.351 243.953C112.491 244.437 110.144 246.573 110.955 251.667C110.964 251.719 110.974 251.787 110.987 251.866C111.031 252.145 111.097 252.564 111.16 252.942C115.182 252.495 118.73 252.328 121.523 252.331Z" fill="#3D3D3D"/><path d="M135.694 254.628C137.022 256.78 136.342 259.595 134.176 260.914C132.01 262.233 129.333 261.803 127.85 259.405C126.368 257.008 126.553 250.843 127.011 250.645C127.447 250.336 134.366 252.476 135.694 254.628Z" fill="#E89665"/><path d="M93.3678 328.223C97.7501 336.449 94.6343 346.67 86.4085 351.052C78.1826 355.434 67.9617 352.318 63.5794 344.092C59.1971 335.867 62.3129 325.646 70.5388 321.263C78.7646 316.881 88.9855 319.997 93.3678 328.223Z" fill="#FFCBA3"/><path fill-rule="evenodd" clip-rule="evenodd" d="M127.124 226.468C126.493 224.252 127.79 221.948 130.02 221.321C133.763 220.269 138.768 220.141 142.391 221.052C144.638 221.617 145.998 223.885 145.429 226.118C144.861 228.35 142.578 229.702 140.332 229.137C138.237 228.61 134.733 228.663 132.304 229.346C130.074 229.973 127.755 228.684 127.124 226.468Z" fill="#3D3D3D"/><path fill-rule="evenodd" clip-rule="evenodd" d="M116.746 221.742C116.715 219.439 114.811 217.598 112.493 217.629C110.31 217.659 107.634 218.255 105.334 218.92C102.965 219.604 100.565 220.487 98.8267 221.314C96.7366 222.309 95.8536 224.799 96.8545 226.876C97.8554 228.953 100.361 229.831 102.451 228.836C103.68 228.251 105.632 227.518 107.676 226.928C109.788 226.318 111.585 225.982 112.608 225.968C114.925 225.937 116.778 224.044 116.746 221.742Z" fill="#3D3D3D"/><path d="M105.96 260.953C113.532 257.338 117.532 263.42 120.423 263.79C123.314 264.16 128.545 262.215 132.91 264.929C137.275 267.644 139.542 275.481 133.731 280.392C127.92 285.302 116.539 288.097 106.997 281.813C97.456 275.528 98.3867 264.568 105.96 260.953Z" fill="#A41414"/><path fill-rule="evenodd" clip-rule="evenodd" d="M128.069 283.724C122.012 286.147 114.008 286.431 106.998 281.813C105.09 280.557 103.601 279.114 102.5 277.579C109.306 273.735 122.947 272.54 128.069 283.724Z" fill="#E64340"/><path fill-rule="evenodd" clip-rule="evenodd" d="M87.4911 251.809C87.6714 251.062 88.4265 250.602 89.1776 250.782C91.0719 251.234 93.36 251.894 95.1593 252.436C96.0623 252.708 96.8484 252.952 97.4091 253.129C97.6895 253.217 97.9137 253.288 98.0681 253.337C98.1453 253.362 98.2051 253.381 98.2458 253.394L98.3084 253.414C98.3085 253.414 98.3088 253.414 97.8763 254.736L98.3084 253.414C98.9195 253.612 99.317 254.198 99.2714 254.835C99.2259 255.472 98.7494 255.996 98.1163 256.105C96.9897 256.3 95.4566 256.771 93.9264 257.402C92.392 258.036 90.9644 258.789 90.0136 259.506C89.3982 259.97 88.5208 259.85 88.054 259.238C87.5871 258.627 87.7075 257.755 88.3229 257.291C89.5372 256.376 91.2045 255.516 92.8533 254.835C92.9396 254.799 93.0262 254.764 93.113 254.729C91.6015 254.286 89.9376 253.822 88.5246 253.485C87.7735 253.306 87.3108 252.555 87.4911 251.809Z" fill="#F7B286"/><path fill-rule="evenodd" clip-rule="evenodd" d="M154.342 233.781C153.829 233.235 152.97 233.207 152.423 233.72C151.574 234.516 150.532 235.395 149.691 236.084C149.272 236.427 148.908 236.718 148.649 236.924C148.52 237.027 148.417 237.108 148.346 237.163L148.266 237.226L148.24 237.246C148.24 237.246 148.24 237.246 148.24 237.246C147.732 237.641 147.571 238.34 147.855 238.918C148.139 239.496 148.791 239.794 149.414 239.632C149.985 239.484 150.848 239.503 151.775 239.678C152.699 239.853 153.471 240.142 153.837 240.362C154.479 240.748 155.313 240.54 155.699 239.897C156.085 239.255 155.877 238.421 155.235 238.035C154.593 237.649 153.668 237.318 152.708 237.1C153.241 236.644 153.787 236.163 154.28 235.7C154.827 235.187 154.855 234.328 154.342 233.781Z" fill="#F7B286"/><path fill-rule="evenodd" clip-rule="evenodd" d="M223.007 261.414C228.377 265.046 232.494 268.024 228.862 273.395C212.059 295.805 193.288 321.806 179.539 338.72C174.869 343.216 167.437 343.075 162.941 338.404C158.444 333.734 159.236 327.998 163.256 321.806C173.805 305.56 189.594 283.797 206.706 264.561C211.303 259.394 217.636 257.782 223.007 261.414Z" fill="#009BE4"/><path d="M183.559 338.29C183.559 348.562 175.349 356.889 165.22 356.889C155.092 356.889 146.881 348.562 146.881 338.29C146.881 328.018 155.092 319.691 165.22 319.691C175.349 319.691 183.559 328.018 183.559 338.29Z" fill="#E18E70"/><path d="M282.575 339.134C281.265 364.029 258.335 378.661 228.635 375.385C198.935 372.109 182.557 351.8 188.016 326.031C193.476 300.262 216.526 291.081 242.455 295.097C269.363 299.391 283.885 314.238 282.575 339.134Z" fill="#FFB7E3"/><path d="M315.141 195.236C316.254 234.1 283.986 261.083 244.624 262.752C205.262 264.421 175.498 236.186 176.194 196.408C176.889 156.629 204.395 126.35 245.581 126.051C286.768 125.752 314.029 156.372 315.141 195.236Z" fill="#FFB7E3"/><path fill-rule="evenodd" clip-rule="evenodd" d="M213.792 257.318C212.618 256.812 211.465 256.273 210.334 255.702C214.117 247.857 224.125 240.674 241.499 240.91C250.697 241.035 258.337 243.091 263.943 246.008C269.237 248.762 272.999 252.445 274.194 256.232C273.023 256.728 271.835 257.197 270.631 257.64C269.997 255.222 267.281 252.046 262.183 249.393C257.163 246.782 250.121 244.842 241.448 244.725C225.209 244.505 216.817 251.119 213.792 257.318Z" fill="#FFA1DA"/><path fill-rule="evenodd" clip-rule="evenodd" d="M271.411 211.713C272.264 212.331 272.455 213.524 271.837 214.377C266.421 221.856 257.138 229.057 248.199 234.844C239.221 240.656 230.378 245.174 225.648 247.245C224.683 247.668 223.558 247.228 223.135 246.263C222.713 245.298 223.152 244.173 224.117 243.75C228.656 241.763 237.317 237.343 246.126 231.641C254.974 225.914 263.761 219.025 268.747 212.139C269.365 211.286 270.557 211.095 271.411 211.713Z" fill="#FFA1DA"/><path d="M290.599 174.614C289.062 202.389 267.984 226.212 235.268 229.176C202.552 232.141 182.681 209.855 184.218 183.067C185.755 156.28 210.536 128.332 241.949 127.21C273.363 126.089 292.136 146.838 290.599 174.614Z" fill="#E18E70"/><path d="M234.027 127.301C249.312 125.245 264.933 129.555 270.126 133.523C260.594 134.59 251.606 141.31 246.201 144.695C235.57 151.353 223.592 160.906 202.874 161.924C189.287 162.591 180.089 160.023 173.96 156.055C171.517 154.112 172.455 150.762 175.236 150.448C179.622 149.953 185.072 148.93 190.007 147.094C202.51 142.442 216.156 129.706 234.027 127.301Z" fill="#3D3D3D"/><path d="M226.913 179.534C225.528 181.943 222.064 183.074 219.455 181.575C216.845 180.075 216.078 176.512 217.463 174.103C218.848 171.694 226.952 168.074 227.149 168.187C227.346 168.3 228.298 177.125 226.913 179.534Z" fill="#A55437"/><path fill-rule="evenodd" clip-rule="evenodd" d="M243.373 181.198C244.191 181.862 244.315 183.063 243.651 183.881C234.585 195.041 222.19 197.343 214.844 192.899C213.943 192.354 213.654 191.181 214.2 190.28C214.745 189.378 215.918 189.09 216.819 189.635C222.023 192.783 232.403 191.676 240.69 181.475C241.354 180.658 242.556 180.533 243.373 181.198Z" fill="#A55437"/><path fill-rule="evenodd" clip-rule="evenodd" d="M220.143 165.097C220.835 165.891 220.753 167.096 219.959 167.789C214.87 172.226 209.645 174.173 205.244 174.206C200.9 174.238 197.089 172.35 195.656 168.847C195.257 167.872 195.724 166.758 196.7 166.359C197.675 165.96 198.788 166.427 199.187 167.402C199.836 168.989 201.848 170.416 205.215 170.391C208.525 170.366 212.901 168.881 217.451 164.913C218.245 164.221 219.45 164.303 220.143 165.097Z" fill="#A55437"/><path d="M264.189 170.263C253.188 169.36 240.819 172.083 233.326 174.347C231.848 174.793 230.314 173.77 230.373 172.226C230.497 168.963 231.19 164.253 233.718 160.243C238.851 152.101 248.572 148.077 258.556 150.921C267.855 153.57 270.713 162.76 267.267 169.181C266.685 170.266 265.407 170.435 264.189 170.263Z" fill="white"/><path fill-rule="evenodd" clip-rule="evenodd" d="M259.407 170.085C253.614 170.111 247.695 170.941 242.499 172.021C242.461 171.257 242.461 170.442 242.5 169.572C242.924 160.202 247.379 157.374 251.887 157.418C256.394 157.463 260.405 160.386 259.416 170.004C259.413 170.031 259.41 170.058 259.407 170.085Z" fill="#3D3D3D"/><path d="M269.681 277.637C267.743 290.485 255.251 297.167 233.418 297.627C211.586 298.087 201.912 291.559 202.116 276.85C202.32 262.141 217.886 252.373 239.453 253.989C261.019 255.604 271.618 264.789 269.681 277.637Z" fill="#1CB0F6"/><path fill-rule="evenodd" clip-rule="evenodd" d="M251.289 278.114C252.059 278.367 252.479 279.196 252.226 279.966C250.583 284.975 246.929 292.898 241.789 299.317C241.282 299.949 240.358 300.051 239.726 299.545C239.093 299.038 238.991 298.115 239.498 297.482C244.373 291.395 247.878 283.803 249.438 279.051C249.69 278.281 250.519 277.862 251.289 278.114Z" fill="#009BE4"/><path d="M252.276 293.34C237.974 299.591 214.46 296.896 206.58 290.469L207.4 294.093C207.556 294.783 207.828 295.444 208.284 295.986C213.883 302.632 230.418 307.34 251.86 302.554L252.276 293.34Z" fill="#FF86D0"/><path fill-rule="evenodd" clip-rule="evenodd" d="M216.826 301.526V295.006C215.183 294.585 213.643 294.1 212.238 293.559L212.238 299.284C213.57 300.106 215.105 300.861 216.826 301.526Z" fill="#FFB7E3"/><path fill-rule="evenodd" clip-rule="evenodd" d="M236.788 304.482V296.747C234.555 296.89 232.301 296.916 230.074 296.836L230.074 304.327C232.202 304.489 234.444 304.546 236.788 304.482Z" fill="#FFB7E3"/><path fill-rule="evenodd" clip-rule="evenodd" d="M266.492 262.454C272.943 263.098 277.651 268.85 277.006 275.301C275.306 292.329 266.115 307.752 254.768 319.663C243.377 331.621 228.86 341.067 214.66 345.766C208.505 347.802 201.865 344.464 199.828 338.308C197.791 332.153 201.13 325.513 207.285 323.476C217.458 320.11 228.757 312.93 237.769 303.469C246.825 293.962 252.625 283.174 253.644 272.968C254.289 266.517 260.041 261.809 266.492 262.454Z" fill="#1CB0F6"/><path d="M172.444 275.156C172.894 274.209 173.814 273.573 174.859 273.488L186.106 272.578C187.151 272.494 188.162 272.973 188.758 273.836L195.169 283.121C195.765 283.984 195.855 285.099 195.406 286.046L190.571 296.241C190.121 297.188 189.201 297.824 188.156 297.909L176.909 298.819C175.864 298.903 174.853 298.424 174.257 297.561L167.846 288.276C167.25 287.413 167.16 286.298 167.609 285.351L172.444 275.156Z" fill="white"/><path d="M177.624 279.983L173.451 273.939L187.447 272.914L184.372 279.729L177.624 279.983Z" fill="#D7FFBD"/><path d="M177.339 280.179L173.166 274.136L167.249 286.861L174.711 286.399L177.339 280.179Z" fill="#D7FFBD"/><path fill-rule="evenodd" clip-rule="evenodd" d="M171.384 274.653C172.013 273.327 173.302 272.437 174.765 272.318L186.012 271.408C187.475 271.29 188.89 271.961 189.724 273.169L196.135 282.454C196.969 283.662 197.096 285.223 196.467 286.549L191.632 296.744C191.003 298.07 189.714 298.96 188.251 299.079L177.004 299.989C175.541 300.107 174.126 299.436 173.292 298.228L166.88 288.943C166.046 287.735 165.92 286.174 166.549 284.848L171.384 274.653ZM174.954 274.659C174.327 274.709 173.775 275.091 173.505 275.659L168.67 285.854C168.401 286.422 168.455 287.092 168.812 287.609L175.224 296.894C175.581 297.412 176.188 297.699 176.815 297.649L188.061 296.739C188.688 296.688 189.241 296.306 189.51 295.738L194.345 285.543C194.615 284.975 194.561 284.306 194.203 283.788L187.792 274.503C187.434 273.985 186.828 273.698 186.201 273.749L174.954 274.659Z" fill="#90DC48"/><path fill-rule="evenodd" clip-rule="evenodd" d="M174.379 273.308L190.672 296.903L188.74 298.237L172.447 274.642L174.379 273.308Z" fill="#90DC48"/><path fill-rule="evenodd" clip-rule="evenodd" d="M188.764 273.322L176.476 299.229L174.355 298.223L186.643 272.315L188.764 273.322Z" fill="#90DC48"/><path fill-rule="evenodd" clip-rule="evenodd" d="M195.943 285.785L167.363 288.098L167.173 285.758L195.754 283.445L195.943 285.785Z" fill="#90DC48"/><path d="M177.253 280.827C177.478 280.353 177.938 280.035 178.46 279.993L183.6 279.577C184.122 279.535 184.627 279.775 184.925 280.206L187.855 284.449C188.153 284.88 188.198 285.438 187.973 285.911L185.764 290.57C185.539 291.043 185.079 291.361 184.557 291.404L179.417 291.819C178.895 291.862 178.389 291.622 178.092 291.191L175.162 286.948C174.864 286.517 174.819 285.959 175.044 285.485L177.253 280.827Z" fill="white"/><path fill-rule="evenodd" clip-rule="evenodd" d="M176.193 280.324C176.597 279.471 177.425 278.899 178.366 278.823L183.505 278.407C184.446 278.331 185.355 278.763 185.892 279.539L188.821 283.782C189.357 284.558 189.439 285.562 189.034 286.414L186.825 291.073C186.421 291.926 185.592 292.498 184.651 292.574L179.512 292.99C178.572 293.066 177.662 292.634 177.126 291.858L174.196 287.615C173.66 286.839 173.579 285.835 173.983 284.982L176.193 280.324ZM178.555 281.163C178.451 281.172 178.359 281.235 178.314 281.33L176.104 285.989C176.06 286.083 176.069 286.195 176.128 286.281L179.058 290.524C179.117 290.61 179.218 290.658 179.323 290.649L184.462 290.234C184.567 290.225 184.659 290.162 184.704 290.067L186.913 285.408C186.958 285.314 186.949 285.202 186.889 285.116L183.96 280.873C183.9 280.787 183.799 280.739 183.694 280.747L178.555 281.163Z" fill="#90DC48"/><path d="M171.237 306.733L161.654 294.184L167.797 288.999C168.214 288.651 168.775 288.461 169.379 288.505L203.62 291.003C204.636 291.077 205.463 291.826 205.612 292.807L213.799 346.647C213.917 347.425 213.595 348.155 213.029 348.608L207.037 353.616L201.511 346.378L178.73 344.716C177.714 344.642 176.887 343.893 176.738 342.912L171.237 306.733Z" fill="#4D4D4D"/><path d="M160.913 296.097C160.708 294.752 161.838 293.57 163.23 293.671L197.471 296.169C198.487 296.243 199.314 296.992 199.464 297.973L207.65 351.813C207.854 353.158 206.725 354.341 205.332 354.239L171.091 351.742C170.075 351.668 169.248 350.918 169.099 349.937L160.913 296.097Z" fill="#3D3D3D"/><path d="M221.806 336.135C221.806 346.407 213.595 354.734 203.466 354.734C193.338 354.734 185.127 346.407 185.127 336.135C185.127 325.863 193.338 317.536 203.466 317.536C213.595 317.536 221.806 325.863 221.806 336.135Z" fill="#E18E70"/><path d="M244.14 271.946L245.209 246.581L265.684 255.001L270.34 269.797C271.083 272.161 269.411 274.596 266.937 274.75L248.188 275.914C245.929 276.054 244.045 274.207 244.14 271.946Z" fill="#FFB7E3"/><path d="M189.823 221.387C179.611 219.836 170.746 222.608 170.023 227.579L169.276 232.716L206.138 239.161L207.005 233.196C207.728 228.226 200.035 222.938 189.823 221.387Z" fill="white"/><path d="M176.931 222.169L176.424 227.758L169.302 231.615C169.364 231.07 169.651 229.287 170.298 226.516C170.945 223.744 174.99 222.463 176.931 222.169Z" fill="#D7FFBD"/><path fill-rule="evenodd" clip-rule="evenodd" d="M176.768 223.384C173.312 224.464 171.625 226.148 171.387 227.786L170.838 231.56L204.982 237.53L205.643 232.989C205.881 231.352 204.745 229.239 201.746 227.178C198.842 225.182 194.57 223.532 189.621 222.78C184.672 222.028 180.115 222.337 176.768 223.384ZM175.962 220.69C179.781 219.496 184.763 219.194 190.026 219.994C195.289 220.793 199.97 222.562 203.284 224.84C206.504 227.053 208.854 230.07 208.369 233.403L207.502 239.368C207.447 239.743 207.247 240.08 206.947 240.302C206.647 240.524 206.271 240.614 205.906 240.55L167.715 233.872L168.661 227.371C169.145 224.038 172.251 221.85 175.962 220.69Z" fill="#90DC48"/><path d="M206.197 238.767C205.474 243.738 196.609 246.51 186.397 244.958C176.185 243.407 168.492 238.12 169.215 233.149C169.937 228.178 178.802 225.406 189.014 226.957C199.227 228.509 206.919 233.796 206.197 238.767Z" fill="white"/><path d="M176.168 227.657L187.184 235.951L174.867 240.388C172.794 239.657 168.762 237.237 169.221 233.409C169.679 229.581 174.043 227.979 176.168 227.657Z" fill="#D7FFBD"/><path fill-rule="evenodd" clip-rule="evenodd" d="M175.958 228.955C172.502 230.036 170.814 231.719 170.576 233.357C170.338 234.994 171.474 237.107 174.473 239.168C177.377 241.164 181.649 242.814 186.598 243.566C191.547 244.318 196.104 244.009 199.451 242.962C202.906 241.882 204.594 240.198 204.832 238.56C205.07 236.923 203.935 234.811 200.936 232.749C198.031 230.753 193.76 229.103 188.81 228.351C183.861 227.6 179.305 227.908 175.958 228.955ZM175.151 226.261C178.97 225.067 183.953 224.765 189.215 225.565C194.478 226.364 199.159 228.134 202.474 230.412C205.694 232.625 208.043 235.641 207.558 238.975C207.074 242.308 203.967 244.496 200.257 245.656C196.438 246.85 191.456 247.152 186.193 246.353C180.93 245.553 176.249 243.784 172.935 241.506C169.715 239.293 167.365 236.276 167.85 232.943C168.335 229.609 171.441 227.421 175.151 226.261Z" fill="#90DC48"/><path fill-rule="evenodd" clip-rule="evenodd" d="M202.054 224.754C201.301 224.639 200.6 225.17 200.488 225.94L199.834 230.438L173.902 239.107C173.179 239.349 172.784 240.144 173.021 240.883C173.257 241.623 174.036 242.026 174.759 241.784L202.31 232.574L203.214 226.354C203.326 225.585 202.807 224.868 202.054 224.754Z" fill="#90DC48"/><path fill-rule="evenodd" clip-rule="evenodd" d="M177.198 220.722C177.951 220.836 178.471 221.553 178.359 222.322L177.668 227.071L200.013 243.073C200.636 243.52 200.787 244.398 200.351 245.035C199.914 245.672 199.055 245.827 198.431 245.38L174.692 228.379L175.633 221.908C175.744 221.139 176.445 220.608 177.198 220.722Z" fill="#90DC48"/><path d="M276.02 33.2563L262.739 33.5421L256.34 53.7555C266.598 54.3925 276.61 48.3903 279.737 42.3176C282.863 36.245 279.466 33.1734 276.02 33.2563Z" fill="white"/><path fill-rule="evenodd" clip-rule="evenodd" d="M261.729 32.155L275.987 31.8481C275.988 31.8481 275.988 31.8481 275.989 31.8481C278.085 31.7982 280.324 32.7062 281.525 34.7546C282.749 36.8427 282.651 39.6829 280.956 42.9737C279.219 46.3468 275.677 49.5428 271.339 51.8072C266.977 54.0842 261.666 55.4975 256.257 55.1615L254.482 55.0513L261.729 32.155ZM263.748 34.9294L258.221 52.3906C262.453 52.324 266.589 51.1235 270.086 49.2983C274.1 47.2027 277.127 44.3613 278.517 41.6617C279.949 38.8799 279.715 37.148 279.161 36.2029C278.584 35.2186 277.401 34.6321 276.052 34.6646L276.048 34.6646L263.748 34.9294Z" fill="#90DC48"/><path d="M200.862 11.8115L209.461 18.8637L204.603 39.3935C195.822 33.9377 191.933 23.899 192.752 17.0881C193.572 10.2772 198.077 9.73462 200.862 11.8115Z" fill="white"/><path fill-rule="evenodd" clip-rule="evenodd" d="M201.701 10.6946L201.676 10.6756C199.981 9.41205 197.635 8.85225 195.505 9.83495C193.334 10.8365 191.83 13.2272 191.386 16.9181C190.497 24.3017 194.664 34.8679 203.888 40.5991L205.5 41.6006L211.008 18.327L201.701 10.6946ZM200.027 12.9336L207.917 19.4043L203.727 37.1091C196.523 31.7674 193.421 23.0877 194.122 17.2621C194.497 14.1421 195.656 12.856 196.639 12.4028C197.655 11.9341 198.941 12.135 200.027 12.9336Z" fill="#90DC48"/><path d="M266.405 20.7718C267.854 12.7536 261.927 8.2511 257.088 7.78696C252.249 7.32282 246.468 8.1865 242.852 8.4186C239.236 8.6507 238.945 6.88317 235.357 4.35081C231.769 1.81845 227.232 1.78089 223.849 2.66981C211.775 6.19048 207.524 21.3069 204.875 36.1943C202.226 51.0816 210.545 67.4819 226.117 70.6446C241.689 73.8074 254.689 63.6574 258.871 49.3313C263.053 35.0052 264.956 28.7901 266.405 20.7718Z" fill="white"/><path d="M207.123 26.3718C209.743 31.8003 220.579 37.8158 225.669 40.145C221.526 47.6973 222.801 63.177 223.957 69.9727C220.437 68.137 213.587 67.5253 207.426 55.1705C203.474 47.2451 205.234 32.873 207.123 26.3718Z" fill="#D7FFBD"/><path d="M241.699 8.40278C233.695 12.702 227.631 30.7677 225.627 39.4857C238.884 44.738 253.216 44.6162 260.746 43.2994C261.705 40.1107 264.095 31.7028 265.984 23.5807C268.346 13.4281 262.519 8.34769 259.138 8.262L259.106 8.2612C256.518 8.19559 246.024 7.92957 241.699 8.40278Z" fill="#D7FFBD"/><path fill-rule="evenodd" clip-rule="evenodd" d="M263.078 12.3825C264.702 14.2455 265.7 16.9363 265.053 20.516C263.745 27.7574 262.066 33.498 258.589 45.3875C258.26 46.5108 257.915 47.6891 257.554 48.9287C253.539 62.6834 241.144 72.2612 226.387 69.264C211.703 66.2814 203.688 50.7406 206.231 36.4458C207.552 29.0226 209.252 21.6829 212.067 15.7865C214.871 9.91342 218.698 5.64226 224.212 4.028C227.357 3.20564 231.433 3.28963 234.577 5.50862C235.417 6.10164 236.066 6.65109 236.637 7.15322C236.749 7.25246 236.862 7.35306 236.975 7.45382C237.411 7.84182 237.85 8.23214 238.282 8.55602C238.86 8.98905 239.493 9.35942 240.284 9.59007C241.066 9.81818 241.927 9.88795 242.94 9.8229C243.942 9.7586 245.064 9.6527 246.259 9.53989C249.596 9.22497 253.503 8.85616 256.962 9.18786C259.053 9.3885 261.417 10.4763 263.078 12.3825ZM265.135 10.5101C262.985 8.04449 259.966 6.64899 257.219 6.38549C253.478 6.02672 249.143 6.43678 245.761 6.75662C244.64 6.8627 243.623 6.95885 242.768 7.01374C241.973 7.06474 241.442 7.0006 241.04 6.88345C240.647 6.76883 240.306 6.58255 239.91 6.28618C239.58 6.03864 239.257 5.75115 238.838 5.37857C238.713 5.26736 238.579 5.14856 238.434 5.02097C237.828 4.48673 237.095 3.8656 236.141 3.19244C232.115 0.350803 227.126 0.355868 223.509 1.30651L223.491 1.31111L223.474 1.31618C216.922 3.22651 212.591 8.27109 209.592 14.552C206.601 20.8159 204.85 28.478 203.522 35.9422C200.768 51.422 209.392 68.6818 225.851 72.0247C242.238 75.353 255.844 64.6308 260.193 49.7334C260.559 48.4766 260.909 47.2816 261.242 46.1417C264.701 34.3182 266.424 28.4249 267.761 21.0271C268.563 16.5886 267.321 13.019 265.135 10.5101Z" fill="#90DC48"/><path fill-rule="evenodd" clip-rule="evenodd" d="M232.493 17.4438C235.315 12.4343 238.345 8.75693 241.207 7.12549L242.55 9.58594C240.359 10.8348 237.637 13.9582 234.881 18.8497C232.156 23.6866 229.494 30.0802 227.341 37.6323C225.365 44.5661 224.514 51.569 224.398 57.3737C224.341 60.275 224.467 62.8595 224.722 64.9717C224.98 67.1114 225.361 68.6738 225.764 69.5867L223.251 70.7451C222.679 69.4486 222.257 67.557 221.986 65.3169C221.712 63.0492 221.583 60.328 221.643 57.3164C221.763 51.2953 222.643 44.0438 224.695 36.8442C226.898 29.1154 229.64 22.5078 232.493 17.4438Z" fill="#90DC48"/><path fill-rule="evenodd" clip-rule="evenodd" d="M212.125 34.042C209.036 31.4901 206.99 28.8112 206.159 26.3985L208.758 25.4624C209.357 27.1979 210.984 29.4771 213.857 31.851C216.706 34.2048 220.697 36.5808 225.873 38.545C231.022 40.499 237.887 41.902 244.448 42.4617C251.053 43.0252 257.121 42.7138 260.763 41.4033L261.678 44.0606C257.468 45.5758 250.918 45.8407 244.219 45.2692C237.477 44.6941 230.354 43.2509 224.914 41.1861C219.499 39.1314 215.238 36.614 212.125 34.042Z" fill="#90DC48"/><path d="M242.165 82.7194C240.743 80.5207 241.334 77.5601 243.485 76.1067L250.196 71.5724C252.347 70.119 255.244 70.7232 256.666 72.9219C258.088 75.1206 257.496 78.0812 255.345 79.5346L248.634 84.0689C246.483 85.5223 243.586 84.9181 242.165 82.7194Z" fill="white"/><path fill-rule="evenodd" clip-rule="evenodd" d="M241.014 83.496C239.173 80.6484 239.938 76.8139 242.724 74.9315L249.435 70.3972C252.222 68.5148 255.973 69.2973 257.815 72.145C259.656 74.9927 258.891 78.8272 256.105 80.7096L249.394 85.2439C246.608 87.1263 242.856 86.3437 241.014 83.496ZM244.244 77.2816C242.728 78.3061 242.311 80.3928 243.314 81.9425C244.316 83.4922 246.358 83.9181 247.874 82.8937L254.585 78.3594C256.101 77.335 256.518 75.2483 255.515 73.6985C254.513 72.1488 252.472 71.723 250.955 72.7474L244.244 77.2816Z" fill="#90DC48"/><path d="M193.579 57.7269C195.566 56.0477 198.51 56.3334 200.152 58.3649L205.278 64.7029C206.92 66.7344 206.641 69.7425 204.653 71.4217C202.666 73.1008 199.723 72.8152 198.08 70.7836L192.955 64.4457C191.312 62.4142 191.591 59.406 193.579 57.7269Z" fill="white"/><path fill-rule="evenodd" clip-rule="evenodd" d="M192.7 56.6409C195.274 54.4661 199.086 54.8361 201.214 57.4673L206.339 63.8052C208.467 66.4364 208.105 70.3324 205.531 72.5072C202.956 74.682 199.145 74.312 197.017 71.6808L191.892 65.3429C189.764 62.7117 190.126 58.8157 192.7 56.6409ZM199.089 59.2621C197.931 57.8302 195.857 57.6289 194.456 58.8124C193.055 59.9959 192.858 62.1161 194.016 63.548L199.141 69.886C200.299 71.3179 202.374 71.5192 203.775 70.3357C205.176 69.1522 205.373 67.032 204.215 65.6001L199.089 59.2621Z" fill="#90DC48"/><path d="M333.65 121.068L319.892 129.041L316.465 122.747C315.151 120.335 311.748 120.325 310.456 122.75C305.672 131.733 298.792 145.716 297.66 156.494C295.749 174.694 307.218 182.577 316.806 184.021C331.167 186.184 340.504 177.5 343.432 167.599C347.41 154.143 343.585 136.445 340.856 124.326C340.123 121.068 336.495 119.419 333.65 121.068Z" fill="white"/><path d="M337.988 121.252C332.559 124.273 326.104 136.561 323.555 142.327C323.584 148.591 322.009 160.486 315.48 157.957C308.95 155.428 302.622 148.591 300.273 145.488C302.908 139.283 308.538 126.152 309.981 123.272C311.785 119.672 315.394 120.813 316.081 122.218C316.631 123.342 318.658 127.37 319.603 129.243C322.782 127.458 329.724 123.518 332.06 122.043C334.397 120.568 336.986 120.901 337.988 121.252Z" fill="#D7FFBD"/><path d="M312.847 182.791C312.128 178.916 313.255 172.379 313.909 169.595L318.158 159.238C326.983 162.98 339.376 162.635 344.47 161.994C343.707 166.393 341.538 176.985 333.508 181.051C324.938 185.39 315.815 184.489 312.847 182.791Z" fill="#D7FFBD"/><path fill-rule="evenodd" clip-rule="evenodd" d="M327.775 131.72C331.251 126.365 334.886 121.99 337.77 120.15L339.229 122.541C336.89 124.032 333.53 127.949 330.072 133.277C326.653 138.544 323.262 144.995 320.809 151.346C318.503 157.315 316.641 163.52 315.503 169.107C314.358 174.73 313.975 179.596 314.526 182.949L311.808 183.416C311.171 179.542 311.637 174.264 312.804 168.533C313.979 162.767 315.89 156.408 318.245 150.311C320.775 143.762 324.259 137.137 327.775 131.72Z" fill="#90DC48"/><path fill-rule="evenodd" clip-rule="evenodd" d="M339.513 124.641C338.984 122.293 336.365 121.112 334.329 122.292L320.571 130.265C320.251 130.451 319.872 130.498 319.519 130.396C319.165 130.295 318.865 130.053 318.687 129.725L315.26 123.431C314.464 121.97 312.428 121.991 311.666 123.422C309.282 127.897 306.391 133.592 303.958 139.495C301.516 145.416 299.574 151.458 299.029 156.644C298.11 165.396 300.411 171.51 303.953 175.607C307.525 179.738 312.469 181.943 317.006 182.626C330.612 184.675 339.358 176.505 342.111 167.19C344.023 160.724 344.079 153.152 343.288 145.611C342.498 138.082 340.877 130.703 339.513 124.641ZM332.969 119.841C336.624 117.723 341.26 119.841 342.199 124.009C343.562 130.066 345.219 137.595 346.028 145.31C346.837 153.012 346.816 161.017 344.75 168.005C341.649 178.493 331.72 187.69 316.604 185.413C311.553 184.652 305.969 182.194 301.887 177.472C297.775 172.717 295.297 165.79 296.289 156.343C296.876 150.75 298.94 144.411 301.418 138.401C303.903 132.372 306.844 126.583 309.245 122.075C311.065 118.657 315.837 118.697 317.668 122.061L320.42 127.114L332.969 119.841Z" fill="#90DC48"/><path fill-rule="evenodd" clip-rule="evenodd" d="M315.009 158.996C307.153 155.14 301.532 149.854 299.309 146.404L301.611 144.854C303.497 147.783 308.684 152.766 316.202 156.456C323.679 160.126 333.346 162.458 344.184 160.273L344.718 163.037C333.18 165.363 322.906 162.872 315.009 158.996Z" fill="#90DC48"/><path d="M326.109 161.846C324.162 168.597 318.671 171.195 314.251 169.585C309.83 167.976 306.232 163.227 308.98 155.56C311.727 147.892 323.769 142.033 323.769 142.033C323.769 142.033 328.055 155.095 326.109 161.846Z" fill="white"/><path fill-rule="evenodd" clip-rule="evenodd" d="M325.075 141.584L323.768 142.032L323.176 140.76C323.532 140.587 323.944 140.578 324.307 140.735C324.67 140.893 324.949 141.202 325.075 141.584ZM322.939 144.058C322.805 144.133 322.664 144.212 322.516 144.297C321.374 144.949 319.826 145.894 318.199 147.07C314.876 149.471 311.491 152.641 310.272 156.043C309.001 159.591 309.25 162.29 310.167 164.23C311.093 166.191 312.785 167.555 314.712 168.257C318.248 169.545 323.018 167.575 324.785 161.446C325.207 159.984 325.311 158.088 325.187 155.985C325.064 153.901 324.724 151.706 324.318 149.691C323.912 147.679 323.447 145.871 323.082 144.565C323.032 144.386 322.984 144.217 322.939 144.058ZM323.768 142.032C323.176 140.76 323.175 140.76 323.175 140.76L323.171 140.762L323.163 140.766L323.133 140.781C323.107 140.794 323.07 140.812 323.023 140.836C322.928 140.884 322.791 140.954 322.617 141.045C322.269 141.227 321.773 141.494 321.171 141.837C319.969 142.524 318.335 143.522 316.608 144.77C313.223 147.215 309.213 150.808 307.684 155.074C306.208 159.193 306.384 162.702 307.685 165.455C308.976 168.188 311.293 170.003 313.787 170.911C319.092 172.843 325.303 169.617 327.429 162.243C327.981 160.329 328.071 158.061 327.939 155.816C327.805 153.553 327.439 151.217 327.017 149.122C326.595 147.024 326.111 145.146 325.732 143.792C325.543 143.114 325.38 142.566 325.264 142.186C325.205 141.995 325.159 141.847 325.126 141.745C325.11 141.694 325.098 141.655 325.089 141.628L325.079 141.597L325.075 141.585C325.075 141.584 325.075 141.584 323.768 142.032Z" fill="#90DC48"/><path d="M106.702 152.763L87.3992 142.654C87.0326 139.627 85.3458 129.447 84.8719 123.705C84.2796 116.526 85.8027 113.845 87.6642 113.154C89.5256 112.462 116.517 102.084 125.063 99.4891C133.609 96.8946 136.655 103.986 139.447 108.397C141.681 111.926 143.198 129.758 143.678 138.234L106.702 152.763Z" fill="white"/><path d="M126.659 145.012L124.592 126.559L141.819 120.432L144.024 137.969L126.659 145.012Z" fill="#D7FFBD"/><path d="M87.2068 142.351L85.8281 128.329L94.5829 130.584L96.9267 147.565L87.2068 142.351Z" fill="#D7FFBD"/><path d="M123.975 127.334L104.473 134.377C104.657 132.569 104.336 127.277 101.579 120.572C98.823 113.867 93.6319 112.003 91.3809 111.909L110.58 104.654C109.367 104.763 110.254 104.615 110.951 104.514L110.58 104.654C110.766 104.637 111.002 104.614 111.295 104.584C114.052 104.302 117.359 107.613 120.391 110.5C122.817 112.811 123.791 122.685 123.975 127.334Z" fill="#D7FFBD"/><path fill-rule="evenodd" clip-rule="evenodd" d="M86.6679 112.308C89.1512 110.417 92.5242 110.211 95.3828 111.692C100.805 114.5 103.589 120.654 104.589 126.556C104.592 126.573 104.595 126.591 104.597 126.608L108.04 152.798C108.109 153.321 107.886 153.839 107.463 154.141C107.04 154.443 106.488 154.478 106.032 154.232L86.963 143.967C86.5685 143.754 86.2988 143.36 86.2394 142.908L83.517 122.216C82.7821 117.692 84.1427 114.231 86.6679 112.308ZM88.3144 114.567C86.78 115.736 85.6295 118.053 86.2391 121.773C86.2416 121.788 86.2438 121.803 86.2458 121.818L88.8764 141.813L104.952 150.467L101.869 127.01C100.929 121.5 98.4221 116.424 94.1368 114.205C92.1383 113.169 89.895 113.364 88.3144 114.567Z" fill="#90DC48"/><path fill-rule="evenodd" clip-rule="evenodd" d="M109.389 103.586C111.327 103.085 113.443 103.325 115.34 104.307C120.762 107.116 123.546 113.27 124.546 119.171C124.549 119.189 124.552 119.206 124.554 119.224L127.997 145.414L125.266 145.789L121.826 119.626C120.887 114.115 118.379 109.04 114.094 106.82C112.773 106.136 111.338 105.988 110.063 106.317L109.389 103.586Z" fill="#90DC48"/><path fill-rule="evenodd" clip-rule="evenodd" d="M95.3077 147.624L90.7734 112.402L93.5062 112.034L98.0404 147.256L95.3077 147.624Z" fill="#90DC48"/><path fill-rule="evenodd" clip-rule="evenodd" d="M125.844 97.651C127.887 97.0125 130.168 97.2067 132.199 98.2404C137.555 100.966 140.955 106.95 141.975 112.863C141.979 112.883 141.982 112.902 141.984 112.922L145.281 138.185L142.549 138.557L139.256 113.324C138.334 108.026 135.321 102.976 130.971 100.762C129.55 100.039 127.996 99.9244 126.65 100.345L125.844 97.651Z" fill="#90DC48"/><path fill-rule="evenodd" clip-rule="evenodd" d="M145.2 137.784C145.474 138.51 145.121 139.326 144.411 139.606L107.223 154.286C106.513 154.567 105.715 154.206 105.441 153.48C105.166 152.754 105.52 151.939 106.23 151.658L143.418 136.978C144.128 136.698 144.926 137.059 145.2 137.784Z" fill="#90DC48"/><path fill-rule="evenodd" clip-rule="evenodd" d="M127.676 98.4636C127.931 99.1965 127.557 100.002 126.84 100.263L89.7785 113.758C89.0615 114.02 88.2732 113.637 88.0178 112.904C87.7624 112.171 88.1365 111.366 88.8535 111.105L125.915 97.6094C126.632 97.3483 127.42 97.7308 127.676 98.4636Z" fill="#90DC48"/><path fill-rule="evenodd" clip-rule="evenodd" d="M142.6 120.218C142.864 120.948 142.498 121.757 141.784 122.027L104.513 136.072L85.4983 129.447C84.7779 129.196 84.3929 128.395 84.6385 127.659C84.8841 126.923 85.6673 126.529 86.3877 126.78L104.476 133.083L140.831 119.383C141.545 119.114 142.337 119.488 142.6 120.218Z" fill="#90DC48"/><path fill-rule="evenodd" clip-rule="evenodd" d="M126.948 130.477C128.097 129.283 128.691 127.477 128.368 125.695C127.889 123.055 125.581 121.467 123.211 122.148C120.842 122.829 119.308 125.521 119.787 128.161C120.126 130.036 121.39 131.381 122.943 131.758L121.687 137.93C121.416 139.261 122.52 140.319 123.729 139.886L129.739 137.733C130.948 137.3 131.416 135.68 130.605 134.735L126.948 130.477Z" fill="#90DC48"/><path d="M138.245 40.0905C139.052 39.2654 140.361 39.2654 141.168 40.0905L149.944 49.0603C150.751 49.8855 150.751 51.2233 149.944 52.0484L141.168 61.0182C140.361 61.8434 139.052 61.8434 138.245 61.0182L129.469 52.0484C128.661 51.2233 128.661 49.8855 129.469 49.0603L138.245 40.0905Z" fill="#FFB2B2"/><path d="M309.295 74.9605C309.941 74.3009 310.987 74.3009 311.632 74.9605L318.647 82.1301C319.292 82.7896 319.292 83.8589 318.647 84.5185L311.632 91.6881C310.987 92.3476 309.941 92.3476 309.295 91.6881L302.281 84.5185C301.636 83.8589 301.636 82.7896 302.281 82.1301L309.295 74.9605Z" fill="#84D8FF"/><path d="M195.458 109.878C195.458 112.846 193.104 115.252 190.201 115.252C187.297 115.252 184.943 112.846 184.943 109.878C184.943 106.911 187.297 104.505 190.201 104.505C193.104 104.505 195.458 106.911 195.458 109.878Z" fill="#FBE56D"/><path d="M4.92912 350.354H436.425C439.061 350.354 441.198 352.489 441.198 355.122V355.232C441.198 357.865 439.061 360 436.425 360H4.92912C2.29314 360 0.15625 357.865 0.15625 355.232V355.122C0.15625 352.489 2.29314 350.354 4.92912 350.354Z" fill="#AFAFAF"/></g><defs><linearGradient id="paint0_linear_793_2718" x1="351.331" y1="209.433" x2="336.361" y2="262.161" gradientUnits="userSpaceOnUse"><stop stop-color="#FFA75F"/><stop offset="1" stop-color="#FFB67A" stop-opacity="0"/></linearGradient><clipPath id="clip0_793_2718"><rect width="441.356" height="360" fill="white"/></clipPath></defs></svg>